# xmcd
#
# Track frame offsets:
#	150
#	11841
#	23934
#	37668
#	48740
#	67117
#	80791
#	94020
#	107767
#	119098
#	131261
#	143963
#	158834
#	171477
#	183083
#
# Disc length: 2627 seconds
#
# Revision: 1
# Processed by: cddbd v1.5.2PL0 Copyright (c) Steve Scherf et al.
# Submitted via: audiograbber 1.83.01
#
DISCID=d10a410f
DTITLE=Diverse - Greatest Country Hits CD2
DYEAR=1900
DGENRE=
TTITLE0=Loretta Lynn - First City
TTITLE1=Tammy Wynette - Stand By Your Man
TTITLE2=Merle Haggard - Okie From Muskogee
TTITLE3=Conway Twitty - Hello Darling
TTITLE4=Johnny Cash - Sunday Mornin' Comin Down
TTITLE5=Waylon Jennings and Willie Nelson - Good Hearted Woman
TTITLE6=Dolly Parton - Here You Come Again
TTITLE7=Emmyloe Harris - Two More Bottles Of Wine
TTITLE8=Jerry Reed - Alabama Wild Man
TTITLE9=Chris Le Doux - Ten Seconds In The Saddle
TTITLE10=Johnny Rodriguez - Something
TTITLE11=Kenny Rogers - Crazy
TTITLE12=Glen Campbell - By The Tim I Get To Phoenix
TTITLE13=Sammi Smith - Help Me Make It Trough The Night
TTITLE14=Buck Owens - Big In Vegas
EXTD=Wir grüßen alle Fans des FSV Zwickau!
EXTT0=
EXTT1=
EXTT2=
EXTT3=
EXTT4=
EXTT5=
EXTT6=
EXTT7=
EXTT8=
EXTT9=
EXTT10=
EXTT11=
EXTT12=
EXTT13=
EXTT14=
PLAYORDER=
